<?xml version="1.0" encoding="utf-8"?>
<!-- Generator: Adobe Illustrator 28.0.0, SVG Export Plug-In . SVG Version: 6.00 Build 0)  -->
<svg version="1.1" id="Layer_1" xmlns="http://www.w3.org/2000/svg" xmlns:xlink="http://www.w3.org/1999/xlink" x="0px" y="0px"
	 viewBox="0 0 566.93 99.73" style="enable-background:new 0 0 566.93 99.73;" xml:space="preserve">
<style type="text/css">
	.st0{fill:#002F57;}
</style>
<g>
	<g>
		<g>
			<g>
				<path class="st0" d="M89.8,99.17H79.47c-1.12,0-2.03-0.91-2.03-2.03V31.62c0-1.12,0.91-2.03,2.03-2.03H89.8
					c1.12,0,2.03,0.91,2.03,2.03v65.52C91.83,98.26,90.92,99.17,89.8,99.17"/>
			</g>
			<g>
				<path class="st0" d="M226.61,8.51c1.19,0,2.15-0.17,2.15-1.59c0-1.25-1.14-1.48-2.13-1.48h-2.05v3.07H226.61z M222.89,3.99h3.75
					c2.49,0,3.81,0.88,3.81,3.07c0,1.9-1.13,2.66-2.7,2.82l2.79,4.57h-1.95l-2.53-4.49h-1.47v4.49h-1.69L222.89,3.99L222.89,3.99z
					 M226.32,16.73c4.02,0,7.26-3.34,7.26-7.5c0-4.14-3.24-7.48-7.26-7.48c-4.01,0-7.24,3.34-7.24,7.48
					C219.08,13.39,222.31,16.73,226.32,16.73 M226.32,0c4.93,0,8.94,4.14,8.94,9.23c0,5.1-4.01,9.25-8.94,9.25
					c-4.92,0-8.94-4.15-8.94-9.25C217.38,4.14,221.4,0,226.32,0"/>
			</g>
			<g>
				<path class="st0" d="M119.86,99.17h-10.33c-1.12,0-2.03-0.91-2.03-2.03V31.62c0-1.12,0.91-2.03,2.03-2.03h10.33
					c1.12,0,2.03,0.91,2.03,2.03v65.52C121.89,98.26,120.98,99.17,119.86,99.17"/>
			</g>
			<g>
				<path class="st0" d="M209.33,3.42v11.22c0,0.8-0.65,1.45-1.44,1.45h-28.84c-0.8,0-1.44,0.64-1.44,1.45v80.18
					c0,0.8-0.65,1.44-1.44,1.44h-13c-0.8,0-1.45-0.64-1.45-1.44V17.53c0-0.8-0.65-1.45-1.44-1.45h-28.75c-0.8,0-1.45-0.65-1.45-1.45
					V3.42c0-0.8,0.65-1.45,1.45-1.45h76.38C208.68,1.97,209.33,2.62,209.33,3.42"/>
			</g>
			<g>
				<path class="st0" d="M89.8,17.9H79.47c-1.12,0-2.03-0.91-2.03-2.03V4.01c0-1.12,0.91-2.03,2.03-2.03H89.8
					c1.12,0,2.03,0.91,2.03,2.03v11.86C91.83,16.99,90.92,17.9,89.8,17.9"/>
			</g>
			<g>
				<path class="st0" d="M119.86,17.9h-10.33c-1.12,0-2.03-0.91-2.03-2.03V4.01c0-1.12,0.91-2.03,2.03-2.03h10.33
					c1.12,0,2.03,0.91,2.03,2.03v11.86C121.89,16.99,120.98,17.9,119.86,17.9"/>
			</g>
			<g>
				<path class="st0" d="M67.21,86.51v11.21c0,0.8-0.65,1.45-1.44,1.45H1.44c-0.8,0-1.44-0.65-1.44-1.45V3.42
					c0-0.8,0.65-1.44,1.44-1.44h13c0.8,0,1.45,0.65,1.45,1.44v80.19c0,0.8,0.65,1.44,1.45,1.44h48.42
					C66.56,85.06,67.21,85.71,67.21,86.51"/>
			</g>
			<g>
				<path class="st0" d="M420.97,46.81c-2.83,0-5.36-0.64-7.6-1.93c-2.24-1.28-4.01-3.15-5.31-5.59s-1.95-5.39-1.95-8.84
					c0-3.48,0.65-6.45,1.96-8.9c1.3-2.45,3.08-4.31,5.33-5.59s4.77-1.92,7.57-1.92c1.86,0,3.58,0.26,5.16,0.78
					c1.59,0.52,2.99,1.28,4.21,2.27s2.21,2.21,2.99,3.64c0.77,1.43,1.26,3.07,1.48,4.91H428c-0.13-0.87-0.38-1.66-0.76-2.35
					c-0.38-0.7-0.87-1.29-1.48-1.78c-0.61-0.49-1.3-0.86-2.08-1.13c-0.78-0.26-1.63-0.39-2.56-0.39c-1.63,0-3.06,0.41-4.29,1.23
					s-2.19,2.01-2.87,3.55c-0.68,1.55-1.02,3.44-1.02,5.66c0,2.27,0.34,4.18,1.03,5.73c0.69,1.55,1.64,2.72,2.87,3.5
					c1.23,0.78,2.65,1.18,4.26,1.18c0.9,0,1.73-0.12,2.51-0.36c0.77-0.24,1.46-0.59,2.06-1.05s1.1-1.02,1.51-1.68
					s0.68-1.42,0.82-2.28h6.81c-0.17,1.47-0.6,2.88-1.29,4.24c-0.69,1.36-1.63,2.56-2.82,3.63c-1.18,1.06-2.59,1.9-4.22,2.53
					C424.84,46.5,423.01,46.81,420.97,46.81"/>
			</g>
			<g>
				<path class="st0" d="M446.83,42.25c0.97,0,1.83-0.2,2.58-0.59s1.33-0.92,1.76-1.58c0.42-0.66,0.63-1.41,0.63-2.24V35.3
					c-0.2,0.13-0.48,0.25-0.85,0.36c-0.36,0.11-0.77,0.22-1.21,0.3c-0.44,0.09-0.88,0.16-1.33,0.22c-0.44,0.06-0.84,0.12-1.2,0.18
					c-0.78,0.11-1.47,0.3-2.06,0.55s-1.04,0.58-1.36,1.01c-0.32,0.42-0.48,0.94-0.48,1.57c0,0.9,0.33,1.58,0.99,2.06
					C444.96,42.02,445.8,42.25,446.83,42.25 M444.92,46.84c-1.51,0-2.87-0.27-4.08-0.8c-1.21-0.54-2.15-1.33-2.84-2.39
					c-0.69-1.06-1.03-2.37-1.03-3.94c0-1.34,0.24-2.46,0.73-3.35c0.48-0.89,1.15-1.62,1.99-2.17c0.84-0.56,1.8-0.98,2.87-1.26
					c1.07-0.29,2.2-0.49,3.4-0.6c1.38-0.13,2.5-0.26,3.34-0.38c0.84-0.13,1.46-0.32,1.85-0.59s0.59-0.65,0.59-1.15V30.1
					c0-0.98-0.31-1.75-0.93-2.29S449.32,27,448.19,27c-1.18,0-2.13,0.26-2.84,0.78s-1.17,1.18-1.4,1.98l-6.15-0.49
					c0.31-1.46,0.93-2.72,1.84-3.78c0.91-1.06,2.09-1.88,3.54-2.46s3.13-0.87,5.04-0.87c1.33,0,2.6,0.16,3.81,0.47
					s2.29,0.8,3.24,1.44c0.95,0.65,1.7,1.49,2.26,2.52s0.83,2.25,0.83,3.66v16.14h-6.31v-3.34h-0.17c-0.39,0.76-0.9,1.42-1.54,1.98
					s-1.41,1.01-2.31,1.33C447.15,46.67,446.11,46.84,444.92,46.84"/>
			</g>
			<g>
				<path class="st0" d="M462.26,46.39V22.45h6.4v4.2h0.26c0.44-1.48,1.18-2.61,2.2-3.37c1.03-0.76,2.21-1.14,3.53-1.14
					c0.34,0,0.7,0.02,1.08,0.05c0.38,0.04,0.72,0.1,1.02,0.18v5.87c-0.31-0.1-0.75-0.18-1.29-0.25c-0.55-0.06-1.06-0.1-1.53-0.1
					c-0.96,0-1.82,0.21-2.59,0.63s-1.37,1.01-1.81,1.75c-0.44,0.75-0.65,1.61-0.65,2.58v13.53h-6.62V46.39z"/>
			</g>
			<g>
				<path class="st0" d="M481.49,16.76h6.62v22.27c0,0.8,0.18,1.39,0.54,1.76c0.36,0.38,0.93,0.57,1.71,0.57
					c0.26,0,0.54-0.02,0.86-0.06c0.31-0.04,0.58-0.09,0.81-0.15l1.05,4.97c-0.73,0.21-1.43,0.37-2.11,0.47
					c-0.68,0.1-1.35,0.15-2,0.15c-2.38,0-4.23-0.6-5.52-1.79c-1.3-1.19-1.95-2.87-1.95-5.04L481.49,16.76L481.49,16.76z
					 M492.62,27.46h-14.41v-5.01h14.41V27.46z"/>
			</g>
			<g>
				<path class="st0" d="M504.22,42.25c0.97,0,1.83-0.2,2.58-0.59s1.33-0.92,1.75-1.58c0.42-0.66,0.63-1.41,0.63-2.24V35.3
					c-0.2,0.13-0.48,0.25-0.85,0.36c-0.36,0.11-0.77,0.22-1.21,0.3c-0.44,0.09-0.89,0.16-1.33,0.22c-0.44,0.06-0.84,0.12-1.2,0.18
					c-0.78,0.11-1.47,0.3-2.06,0.55s-1.04,0.58-1.36,1.01c-0.32,0.42-0.48,0.94-0.48,1.57c0,0.9,0.33,1.58,0.99,2.06
					C502.35,42.02,503.2,42.25,504.22,42.25 M502.32,46.84c-1.51,0-2.87-0.27-4.08-0.8c-1.21-0.54-2.15-1.33-2.84-2.39
					c-0.69-1.06-1.03-2.37-1.03-3.94c0-1.34,0.24-2.46,0.73-3.35c0.48-0.89,1.15-1.62,1.99-2.17c0.84-0.56,1.8-0.98,2.87-1.26
					c1.07-0.29,2.2-0.49,3.4-0.6c1.39-0.13,2.5-0.26,3.34-0.38c0.84-0.13,1.46-0.32,1.85-0.59s0.59-0.65,0.59-1.15V30.1
					c0-0.98-0.31-1.75-0.93-2.29S506.72,27,505.59,27c-1.18,0-2.13,0.26-2.84,0.78s-1.17,1.18-1.4,1.98l-6.15-0.49
					c0.31-1.46,0.93-2.72,1.84-3.78c0.91-1.06,2.09-1.88,3.54-2.46s3.13-0.87,5.04-0.87c1.33,0,2.6,0.16,3.81,0.47
					s2.29,0.8,3.24,1.44c0.95,0.65,1.7,1.49,2.26,2.52s0.83,2.25,0.83,3.66v16.14h-6.31v-3.34h-0.17c-0.39,0.76-0.9,1.42-1.54,1.98
					s-1.41,1.01-2.31,1.33C504.54,46.67,503.5,46.84,502.32,46.84"/>
			</g>
			<g>
				<path class="st0" d="M519.66,46.39V22.45h6.4v4.2h0.26c0.44-1.48,1.18-2.61,2.2-3.37c1.03-0.76,2.21-1.14,3.53-1.14
					c0.34,0,0.7,0.02,1.08,0.05c0.38,0.04,0.72,0.1,1.02,0.18v5.87c-0.31-0.1-0.75-0.18-1.29-0.25c-0.55-0.06-1.06-0.1-1.53-0.1
					c-0.96,0-1.82,0.21-2.59,0.63s-1.37,1.01-1.81,1.75c-0.43,0.75-0.65,1.61-0.65,2.58v13.53h-6.62V46.39z"/>
			</g>
			<g>
				<path class="st0" d="M536.14,22.45h6.62v23.94h-6.62V22.45z M539.44,19.39c-0.98,0-1.83-0.33-2.53-0.98
					c-0.7-0.66-1.05-1.45-1.05-2.38s0.35-1.72,1.05-2.36c0.7-0.65,1.54-0.97,2.53-0.97c1,0,1.85,0.32,2.55,0.97s1.05,1.44,1.05,2.36
					c0,0.93-0.35,1.72-1.05,2.38C541.29,19.06,540.44,19.39,539.44,19.39"/>
			</g>
			<g>
				<path class="st0" d="M555.37,42.25c0.97,0,1.83-0.2,2.58-0.59s1.33-0.92,1.76-1.58c0.42-0.66,0.63-1.41,0.63-2.24V35.3
					c-0.2,0.13-0.48,0.25-0.85,0.36c-0.36,0.11-0.77,0.22-1.21,0.3c-0.44,0.09-0.89,0.16-1.33,0.22s-0.84,0.12-1.2,0.18
					c-0.79,0.11-1.47,0.3-2.06,0.55c-0.58,0.25-1.04,0.58-1.36,1.01c-0.32,0.42-0.48,0.94-0.48,1.57c0,0.9,0.33,1.58,0.98,2.06
					C553.5,42.02,554.34,42.25,555.37,42.25 M553.46,46.84c-1.51,0-2.87-0.27-4.08-0.8c-1.21-0.54-2.15-1.33-2.84-2.39
					c-0.69-1.06-1.03-2.37-1.03-3.94c0-1.34,0.24-2.46,0.73-3.35c0.48-0.89,1.15-1.62,1.99-2.17c0.84-0.56,1.8-0.98,2.87-1.26
					c1.07-0.29,2.2-0.49,3.4-0.6c1.39-0.13,2.5-0.26,3.34-0.38c0.84-0.13,1.46-0.32,1.85-0.59c0.39-0.27,0.59-0.65,0.59-1.15V30.1
					c0-0.98-0.31-1.75-0.93-2.29S557.86,27,556.73,27c-1.18,0-2.13,0.26-2.84,0.78s-1.17,1.18-1.4,1.98l-6.15-0.49
					c0.31-1.46,0.93-2.72,1.84-3.78c0.91-1.06,2.09-1.88,3.54-2.46c1.45-0.58,3.13-0.87,5.04-0.87c1.33,0,2.6,0.16,3.81,0.47
					s2.29,0.8,3.24,1.44c0.95,0.65,1.7,1.49,2.26,2.52s0.83,2.25,0.83,3.66v16.14h-6.31v-3.34h-0.17c-0.39,0.76-0.9,1.42-1.54,1.98
					c-0.64,0.56-1.41,1.01-2.31,1.33C555.69,46.67,554.65,46.84,553.46,46.84"/>
			</g>
		</g>
		<g>
			<rect x="406.69" y="56.11" class="st0" width="6.72" height="31.9"/>
		</g>
		<g>
			<g>
				<path class="st0" d="M418.98,58.37h6.62v22.26c0,0.8,0.18,1.39,0.54,1.77c0.36,0.38,0.93,0.57,1.71,0.57
					c0.26,0,0.54-0.02,0.86-0.06c0.31-0.04,0.58-0.09,0.81-0.15l1.05,4.97c-0.73,0.21-1.43,0.37-2.11,0.47s-1.35,0.15-2,0.15
					c-2.38,0-4.22-0.6-5.52-1.79s-1.95-2.87-1.95-5.04L418.98,58.37L418.98,58.37z M430.11,69.08H415.7v-5.01h14.41L430.11,69.08
					L430.11,69.08z"/>
			</g>
			<g>
				<path class="st0" d="M441.71,83.87c0.97,0,1.83-0.2,2.58-0.59s1.34-0.92,1.76-1.58s0.63-1.41,0.63-2.24v-2.55
					c-0.2,0.13-0.48,0.25-0.84,0.36s-0.77,0.22-1.21,0.3c-0.44,0.09-0.88,0.16-1.33,0.22c-0.44,0.06-0.84,0.12-1.2,0.18
					c-0.78,0.11-1.47,0.3-2.06,0.55c-0.58,0.25-1.04,0.58-1.36,1.01c-0.32,0.42-0.48,0.95-0.48,1.57c0,0.9,0.33,1.58,0.99,2.05
					C439.84,83.64,440.68,83.87,441.71,83.87 M439.8,88.45c-1.51,0-2.87-0.27-4.08-0.8c-1.21-0.54-2.15-1.33-2.84-2.39
					s-1.03-2.37-1.03-3.94c0-1.34,0.24-2.46,0.73-3.35c0.48-0.89,1.15-1.62,1.99-2.17c0.84-0.56,1.8-0.98,2.87-1.26
					c1.07-0.29,2.21-0.49,3.4-0.6c1.38-0.13,2.5-0.26,3.34-0.38c0.84-0.13,1.46-0.32,1.85-0.59s0.59-0.65,0.59-1.15v-0.11
					c0-0.98-0.31-1.75-0.93-2.29s-1.49-0.81-2.62-0.81c-1.18,0-2.13,0.26-2.84,0.78s-1.17,1.18-1.4,1.98l-6.14-0.49
					c0.31-1.46,0.93-2.72,1.84-3.78s2.09-1.88,3.54-2.46s3.13-0.87,5.04-0.87c1.33,0,2.6,0.16,3.81,0.47s2.29,0.8,3.24,1.44
					s1.7,1.49,2.26,2.52s0.83,2.25,0.83,3.66V88h-6.31v-3.34h-0.17c-0.39,0.76-0.9,1.42-1.54,1.98c-0.64,0.56-1.41,1.01-2.31,1.33
					C442.03,88.29,440.99,88.45,439.8,88.45"/>
			</g>
		</g>
		<g>
			<rect x="457.15" y="56.11" class="st0" width="6.62" height="31.9"/>
		</g>
		<g>
			<g>
				<path class="st0" d="M467.66,64.07h6.62V88h-6.62V64.07z M470.95,61.01c-0.98,0-1.83-0.33-2.53-0.98
					c-0.7-0.66-1.05-1.45-1.05-2.38s0.35-1.72,1.05-2.36c0.7-0.65,1.54-0.97,2.53-0.97c1,0,1.85,0.32,2.55,0.97
					c0.7,0.65,1.05,1.44,1.05,2.36c0,0.93-0.35,1.72-1.05,2.38C472.8,60.68,471.95,61.01,470.95,61.01"/>
			</g>
			<g>
				<path class="st0" d="M486.88,83.87c0.97,0,1.83-0.2,2.58-0.59s1.33-0.92,1.75-1.58s0.63-1.41,0.63-2.24v-2.55
					c-0.2,0.13-0.48,0.25-0.85,0.36c-0.36,0.11-0.77,0.22-1.21,0.3c-0.44,0.09-0.89,0.16-1.33,0.22c-0.44,0.06-0.84,0.12-1.2,0.18
					c-0.78,0.11-1.47,0.3-2.06,0.55s-1.04,0.58-1.36,1.01c-0.32,0.42-0.48,0.95-0.48,1.57c0,0.9,0.33,1.58,0.99,2.05
					C485.01,83.64,485.85,83.87,486.88,83.87 M484.98,88.45c-1.51,0-2.87-0.27-4.08-0.8c-1.21-0.54-2.15-1.33-2.84-2.39
					s-1.03-2.37-1.03-3.94c0-1.34,0.24-2.46,0.73-3.35c0.48-0.89,1.15-1.62,1.99-2.17c0.84-0.56,1.8-0.98,2.87-1.26
					c1.07-0.29,2.2-0.49,3.4-0.6c1.39-0.13,2.5-0.26,3.34-0.38c0.84-0.13,1.46-0.32,1.85-0.59s0.59-0.65,0.59-1.15v-0.11
					c0-0.98-0.31-1.75-0.93-2.29s-1.49-0.81-2.62-0.81c-1.18,0-2.13,0.26-2.84,0.78s-1.17,1.18-1.4,1.98l-6.15-0.49
					c0.31-1.46,0.93-2.72,1.84-3.78s2.09-1.88,3.54-2.46s3.13-0.87,5.04-0.87c1.33,0,2.6,0.16,3.81,0.47s2.29,0.8,3.24,1.44
					s1.7,1.49,2.26,2.52s0.83,2.25,0.83,3.66V88h-6.31v-3.34h-0.17c-0.39,0.76-0.9,1.42-1.54,1.98c-0.64,0.56-1.41,1.01-2.31,1.33
					C487.2,88.29,486.16,88.45,484.98,88.45"/>
			</g>
			<g>
				<path class="st0" d="M508.93,74.17V88h-6.62V64.07h6.51v4.26h0.24c0.54-1.41,1.41-2.53,2.59-3.34c1.18-0.81,2.67-1.22,4.45-1.22
					c1.66,0,3.1,0.36,4.33,1.09c1.23,0.73,2.2,1.76,2.88,3.1s1.03,2.95,1.03,4.82V88h-6.61V73.96c0-1.46-0.38-2.6-1.14-3.44
					c-0.76-0.83-1.8-1.25-3.13-1.25c-0.88,0-1.67,0.2-2.35,0.59c-0.69,0.39-1.22,0.95-1.61,1.68
					C509.13,72.27,508.93,73.15,508.93,74.17"/>
			</g>
			<g>
				<path class="st0" d="M536.96,83.87c0.97,0,1.83-0.2,2.58-0.59s1.34-0.92,1.76-1.58s0.63-1.41,0.63-2.24v-2.55
					c-0.2,0.13-0.48,0.25-0.85,0.36c-0.36,0.11-0.77,0.22-1.21,0.3c-0.44,0.09-0.88,0.16-1.33,0.22c-0.44,0.06-0.84,0.12-1.2,0.18
					c-0.78,0.11-1.47,0.3-2.06,0.55c-0.58,0.25-1.04,0.58-1.36,1.01c-0.32,0.42-0.48,0.95-0.48,1.57c0,0.9,0.33,1.58,0.99,2.05
					C535.09,83.64,535.93,83.87,536.96,83.87 M535.05,88.45c-1.51,0-2.87-0.27-4.08-0.8c-1.21-0.54-2.15-1.33-2.84-2.39
					s-1.03-2.37-1.03-3.94c0-1.34,0.24-2.46,0.73-3.35c0.48-0.89,1.15-1.62,1.99-2.17c0.84-0.56,1.8-0.98,2.87-1.26
					c1.07-0.29,2.21-0.49,3.4-0.6c1.38-0.13,2.5-0.26,3.34-0.38c0.84-0.13,1.46-0.32,1.85-0.59c0.39-0.27,0.59-0.65,0.59-1.15v-0.11
					c0-0.98-0.31-1.75-0.93-2.29s-1.49-0.81-2.62-0.81c-1.18,0-2.13,0.26-2.84,0.78s-1.17,1.18-1.4,1.98l-6.14-0.49
					c0.31-1.46,0.93-2.72,1.84-3.78c0.91-1.06,2.09-1.88,3.54-2.46s3.13-0.87,5.04-0.87c1.33,0,2.6,0.16,3.81,0.47
					s2.29,0.8,3.24,1.44c0.95,0.65,1.7,1.49,2.26,2.52s0.83,2.25,0.83,3.66V88h-6.31v-3.34h-0.17c-0.39,0.76-0.9,1.42-1.54,1.98
					c-0.64,0.56-1.41,1.01-2.31,1.33C537.28,88.29,536.24,88.45,535.05,88.45"/>
			</g>
			<g>
				<path class="st0" d="M383.57,39.62l-12.9,22.32l-16.94,29.32c-1.3,2.25-4.74,1.33-4.74-1.27V61.16c0-7.26-3.87-13.97-10.16-17.6
					L313.8,29.11c-2.25-1.3-1.33-4.74,1.27-4.74h59.71C382.6,24.38,387.49,32.85,383.57,39.62 M389.86,25.99
					c-1.84-3.19-4.41-5.72-7.36-7.49c-0.18-0.11-0.36-0.22-0.55-0.32L358.19,4.46c-0.02-0.01-0.03-0.01-0.04-0.02l-0.57-0.32
					c-3.04-1.73-6.56-2.71-10.3-2.71c-3.94,0-7.62,1.08-10.77,2.97c-0.04,0.02-0.08,0.05-0.11,0.06l-23.73,13.71l-0.58,0.34
					c-2.97,1.77-5.55,4.3-7.4,7.51c-1.96,3.41-2.87,7.14-2.81,10.8v27.57c-0.06,3.66,0.84,7.39,2.81,10.79
					c1.91,3.32,4.6,5.91,7.7,7.69c0.06,0.04,0.11,0.06,0.17,0.1l23.83,13.76c0.1,0.06,0.2,0.12,0.31,0.18
					c3.09,1.81,6.7,2.85,10.57,2.85c3.98,0,7.7-1.11,10.87-3.03c0.02-0.01,0.03-0.02,0.05-0.03l23.78-13.72
					c0.07-0.04,0.13-0.07,0.19-0.11c3.1-1.78,5.78-4.37,7.69-7.69c1.9-3.31,2.81-6.91,2.81-10.48v-28.2
					C392.67,32.91,391.76,29.3,389.86,25.99"/>
			</g>
		</g>
		<g>
			<rect x="268.37" y="1.41" class="st0" width="1" height="98.32"/>
		</g>
	</g>
</g>
</svg>
